<svg height="512" viewBox="0 0 128 128" width="512" xmlns="http://www.w3.org/2000/svg"><g><path d="m15.117 47.253h77.75v32.715a24.976 24.976 0 0 1 -13.267 22.062l-5.592 2.97h-40.032l-5.591-2.967a24.976 24.976 0 0 1 -13.268-22.065z" fill="#efe6de"/><path d="m94.1 117.128h-80.219a12.131 12.131 0 0 1 -12.131-12.128h104.484a12.131 12.131 0 0 1 -12.134 12.128z" fill="#5d5360"/><path d="m110.793 47.256h-17.926v8h17.926a7.454 7.454 0 0 1 .974 14.844l-18.9 2.493v7.375c0 .234-.018.465-.024.7l19.97-2.633a15.454 15.454 0 0 0 -2.02-30.776z" fill="#dfccbf"/><path d="m43.094 65.227a9.992 9.992 0 0 1 14.131 0l7.664 7.664a9.991 9.991 0 0 1 0 14.131 9.991 9.991 0 0 1 -14.13 0l-7.665-7.664a9.992 9.992 0 0 1 0-14.131z" fill="#c27b48"/><path d="m63.537 88.145a9.538 9.538 0 0 0 2.475-2.475l-21.565-21.565a9.981 9.981 0 0 0 -1.353 1.122 10.056 10.056 0 0 0 -1.122 1.353z" fill="#966857"/><g fill="#efe6de"><path d="m37.4 40.125a1.75 1.75 0 0 1 -1.75-1.75 7.94 7.94 0 0 1 2.432-5.731 4.564 4.564 0 0 0 1.568-3.432 4.622 4.622 0 0 0 -1.568-3.435 7.978 7.978 0 0 1 0-11.47 4.622 4.622 0 0 0 1.568-3.435 1.75 1.75 0 0 1 3.5 0 7.95 7.95 0 0 1 -2.431 5.735 4.545 4.545 0 0 0 0 6.87 7.977 7.977 0 0 1 0 11.468 4.558 4.558 0 0 0 -1.568 3.43 1.749 1.749 0 0 1 -1.751 1.75z"/><path d="m51.992 40.125a1.75 1.75 0 0 1 -1.75-1.75 7.936 7.936 0 0 1 2.432-5.731 4.564 4.564 0 0 0 1.568-3.432 4.619 4.619 0 0 0 -1.569-3.435 7.98 7.98 0 0 1 0-11.47 4.619 4.619 0 0 0 1.569-3.435 1.75 1.75 0 0 1 3.5 0 7.95 7.95 0 0 1 -2.431 5.735 4.545 4.545 0 0 0 0 6.87 7.977 7.977 0 0 1 0 11.468 4.558 4.558 0 0 0 -1.568 3.43 1.75 1.75 0 0 1 -1.751 1.75z"/><path d="m66.587 40.125a1.749 1.749 0 0 1 -1.75-1.75 7.936 7.936 0 0 1 2.432-5.731 4.564 4.564 0 0 0 1.568-3.432 4.622 4.622 0 0 0 -1.568-3.435 7.978 7.978 0 0 1 0-11.47 4.622 4.622 0 0 0 1.568-3.435 1.75 1.75 0 0 1 3.5 0 7.947 7.947 0 0 1 -2.432 5.735 4.547 4.547 0 0 0 0 6.87 7.976 7.976 0 0 1 0 11.468 4.558 4.558 0 0 0 -1.568 3.43 1.749 1.749 0 0 1 -1.75 1.75z"/></g></g></svg>