<?xml version="1.0" encoding="iso-8859-1"?>
<!-- Generator: Adobe Illustrator 19.0.0, SVG Export Plug-In . SVG Version: 6.00 Build 0)  -->
<svg version="1.1" id="Capa_1" xmlns="http://www.w3.org/2000/svg" xmlns:xlink="http://www.w3.org/1999/xlink" x="0px" y="0px"
	 viewBox="0 0 512 512" style="enable-background:new 0 0 512 512;" xml:space="preserve">
<g>
	<path style="fill:#B38A82;" d="M125.402,368.388c-6.482,0-12.963-2.473-17.908-7.418L8.946,262.422
		c-9.89-9.89-9.89-25.925,0-35.816c9.891-9.89,25.926-9.889,35.816,0l98.548,98.548c9.89,9.89,9.89,25.925,0,35.816
		C138.365,365.915,131.884,368.388,125.402,368.388z"/>
	<path style="fill:#B38A82;" d="M388.126,282.429c-6.482,0-12.962-2.472-17.908-7.418c-9.89-9.89-9.89-25.925,0-35.816
		l98.548-98.548c9.89-9.891,25.925-9.89,35.816,0c9.89,9.89,9.89,25.925,0,35.816l-98.548,98.548
		C401.09,279.956,394.607,282.429,388.126,282.429z"/>
	<path style="fill:#B38A82;" d="M415.049,416.661c0,34.915-70.867,63.219-158.285,63.219c-87.419,0-158.285-28.304-158.285-63.219
		V95.337H415.05v321.324H415.049z"/>
</g>
<g style="opacity:0.1;">
	<path d="M347.102,432.039c-4.142,0-7.5-3.358-7.5-7.5c0-7.894,0.788-15.251,1.623-23.041c0.97-9.049,1.973-18.406,1.973-30.184
		c0-4.142,3.358-7.5,7.5-7.5s7.5,3.358,7.5,7.5c0,12.579-1.094,22.781-2.059,31.782c-0.791,7.38-1.538,14.35-1.538,21.442
		C354.602,428.682,351.244,432.039,347.102,432.039z"/>
	<path d="M159.888,409.982c-0.015,0-0.03,0-0.045,0c-4.142-0.024-7.48-3.402-7.456-7.544c0.052-8.927-1.339-18.4-2.684-27.563
		c-1.224-8.336-2.38-16.21-2.38-23.221c0-4.142,3.358-7.5,7.5-7.5s7.5,3.358,7.5,7.5c0,5.915,1.079,13.262,2.221,21.042
		c1.36,9.264,2.902,19.763,2.843,29.83C167.362,406.653,164.009,409.982,159.888,409.982z"/>
	<path d="M291.054,450.225c-3.687,0-6.902-2.72-7.42-6.476c-0.924-6.694-0.054-17.517,0.713-27.066
		c0.387-4.823,0.753-9.378,0.753-11.998c0-4.142,3.358-7.5,7.5-7.5s7.5,3.358,7.5,7.5c0,3.222-0.372,7.845-0.802,13.199
		c-0.671,8.35-1.505,18.741-0.805,23.814c0.566,4.103-2.301,7.889-6.404,8.455C291.741,450.201,291.396,450.225,291.054,450.225z"/>
	<path d="M306.97,215.33c-0.156,0-0.312-0.004-0.469-0.014c-4.134-0.255-7.279-3.813-7.024-7.947
		c0.267-4.339,0.992-8.046,1.63-11.316c0.794-4.065,1.48-7.575,1.34-11.962c-0.131-4.14,3.118-7.603,7.258-7.734
		c4.144-0.151,7.603,3.118,7.734,7.258c0.193,6.077-0.724,10.772-1.611,15.313c-0.604,3.091-1.173,6.01-1.38,9.364
		C314.204,212.268,310.901,215.33,306.97,215.33z"/>
	<path d="M151.574,220.088c-4.142,0-7.5-3.358-7.5-7.5c0-5.075-0.726-11.931-2.352-22.232c-0.646-4.091,2.146-7.932,6.238-8.578
		c4.086-0.646,7.932,2.146,8.578,6.238c1.754,11.104,2.536,18.682,2.536,24.571C159.074,216.73,155.716,220.088,151.574,220.088z"/>
</g>
<g>
	<ellipse style="fill:#F27281;" cx="180.39" cy="295.189" rx="27.899" ry="22.22"/>
	<ellipse style="fill:#F27281;" cx="331.61" cy="295.189" rx="27.899" ry="22.22"/>
</g>
<g>
	<path style="fill:#464D59;" d="M185.053,276.456c-4.142,0-7.5-3.358-7.5-7.5v-11.975c0-4.142,3.358-7.5,7.5-7.5s7.5,3.358,7.5,7.5
		v11.975C192.553,273.098,189.195,276.456,185.053,276.456z"/>
	<path style="fill:#464D59;" d="M256,298.332L256,298.332c-11.163,0-20.213-9.05-20.213-20.213v-14.695
		c0-3.047,2.47-5.518,5.518-5.518h29.39c3.047,0,5.518,2.47,5.518,5.518v14.695C276.213,289.282,267.163,298.332,256,298.332z"/>
	<path style="fill:#464D59;" d="M326.947,276.456c-4.142,0-7.5-3.358-7.5-7.5v-11.975c0-4.142,3.358-7.5,7.5-7.5s7.5,3.358,7.5,7.5
		v11.975C334.447,273.098,331.089,276.456,326.947,276.456z"/>
</g>
<path style="opacity:0.1;enable-background:new    ;" d="M98.479,416.661c0,34.915,70.867,63.219,158.285,63.219
	c11.327,0,22.373-0.479,33.026-1.382c-117.1-51.143-133.366-217.537-127.383-383.161H98.479V416.661z"/>
<ellipse style="fill:#F5D7B7;" cx="256.76" cy="95.339" rx="158.28" ry="63.22"/>
<g>
	<path style="fill:#F2CAA7;" d="M256.764,128.068c-17.169,0-33.824-1.162-49.499-3.453c-14.658-2.143-28.307-5.235-40.565-9.193
		c-3.942-1.272-6.106-5.5-4.834-9.441c1.273-3.942,5.498-6.109,9.441-4.834c11.466,3.701,24.294,6.603,38.127,8.625
		c14.96,2.187,30.884,3.295,47.33,3.295c4.142,0,7.5,3.358,7.5,7.5C264.264,124.71,260.906,128.068,256.764,128.068z"/>
	<path style="fill:#F2CAA7;" d="M343.326,89.507c-0.748,0-1.507-0.112-2.259-0.35c-14.241-4.493-30.329-7.735-47.817-9.635
		c-4.118-0.447-7.094-4.148-6.646-8.266s4.148-7.092,8.266-6.646c18.468,2.007,35.53,5.453,50.711,10.243
		c3.95,1.246,6.142,5.459,4.895,9.409C349.467,87.461,346.512,89.507,343.326,89.507z"/>
	<path style="fill:#F2CAA7;" d="M234.615,78.28c-3.93,0-7.232-3.06-7.479-7.037c-0.256-4.134,2.888-7.693,7.022-7.95
		c7.372-0.457,14.977-0.688,22.605-0.688c4.142,0,7.5,3.358,7.5,7.5s-3.358,7.5-7.5,7.5c-7.321,0-14.614,0.222-21.678,0.66
		C234.929,78.275,234.771,78.28,234.615,78.28z"/>
</g>
<path style="fill:#8ADBA1;" d="M24.097,122.818c4.235-5.069,12.044-5.069,16.28,0c9.55,11.43,24.097,33.446,24.097,61.506
	c0,21.411-14.433,42.488-32.237,42.488C14.433,226.813,0,205.735,0,184.324C0,156.264,14.547,134.248,24.097,122.818z"/>
<path style="opacity:0.1;enable-background:new    ;" d="M32.237,206.805c-4.142,0-7.5-3.358-7.5-7.5V157.48
	c0-4.142,3.358-7.5,7.5-7.5s7.5,3.358,7.5,7.5v41.825C39.737,203.447,36.379,206.805,32.237,206.805z"/>
<g>
</g>
<g>
</g>
<g>
</g>
<g>
</g>
<g>
</g>
<g>
</g>
<g>
</g>
<g>
</g>
<g>
</g>
<g>
</g>
<g>
</g>
<g>
</g>
<g>
</g>
<g>
</g>
<g>
</g>
</svg>
